<svg width="966" height="29" viewBox="0 0 966 29" fill="none" xmlns="http://www.w3.org/2000/svg">
<path d="M381.25 12.814H364.75C364.021 12.814 363.321 13.0982 362.805 13.6041C362.29 14.11 362 14.7962 362 15.5116V26.3023C362 27.0178 362.29 27.704 362.805 28.2099C363.321 28.7158 364.021 29 364.75 29H381.25C381.979 29 382.679 28.7158 383.195 28.2099C383.71 27.704 384 27.0178 384 26.3023V15.5116C384 14.7962 383.71 14.11 383.195 13.6041C382.679 13.0982 381.979 12.814 381.25 12.814ZM381.25 26.3023H364.75V20.907H381.25V26.3023ZM381.25 18.2093H364.75V15.5116H381.25V18.2093ZM379.875 4.72093V11.4651H377.812V6.74419H370.085L373.413 10.0219L371.955 11.4651L366.125 5.73256L371.955 0L373.413 1.44326L370.085 4.72093H379.875Z" fill="#F2C94C"/>
<path d="M403.693 26H402V19.4727L399.979 20.0996V18.7227L403.512 17.457H403.693V26ZM412.213 22.4727C412.213 23.6523 411.969 24.5547 411.48 25.1797C410.992 25.8047 410.277 26.1172 409.336 26.1172C408.406 26.1172 407.695 25.8105 407.203 25.1973C406.711 24.584 406.459 23.7051 406.447 22.5605V20.9902C406.447 19.7988 406.693 18.8945 407.186 18.2773C407.682 17.6602 408.395 17.3516 409.324 17.3516C410.254 17.3516 410.965 17.6582 411.457 18.2715C411.949 18.8809 412.201 19.7578 412.213 20.9023V22.4727ZM410.52 20.75C410.52 20.043 410.422 19.5293 410.227 19.209C410.035 18.8848 409.734 18.7227 409.324 18.7227C408.926 18.7227 408.631 18.877 408.439 19.1855C408.252 19.4902 408.152 19.9688 408.141 20.6211V22.6953C408.141 23.3906 408.234 23.9082 408.422 24.248C408.613 24.584 408.918 24.752 409.336 24.752C409.75 24.752 410.049 24.5898 410.232 24.2656C410.416 23.9414 410.512 23.4453 410.52 22.7773V20.75ZM419.104 22.4727C419.104 23.6523 418.859 24.5547 418.371 25.1797C417.883 25.8047 417.168 26.1172 416.227 26.1172C415.297 26.1172 414.586 25.8105 414.094 25.1973C413.602 24.584 413.35 23.7051 413.338 22.5605V20.9902C413.338 19.7988 413.584 18.8945 414.076 18.2773C414.572 17.6602 415.285 17.3516 416.215 17.3516C417.145 17.3516 417.855 17.6582 418.348 18.2715C418.84 18.8809 419.092 19.7578 419.104 20.9023V22.4727ZM417.41 20.75C417.41 20.043 417.312 19.5293 417.117 19.209C416.926 18.8848 416.625 18.7227 416.215 18.7227C415.816 18.7227 415.521 18.877 415.33 19.1855C415.143 19.4902 415.043 19.9688 415.031 20.6211V22.6953C415.031 23.3906 415.125 23.9082 415.312 24.248C415.504 24.584 415.809 24.752 416.227 24.752C416.641 24.752 416.939 24.5898 417.123 24.2656C417.307 23.9414 417.402 23.4453 417.41 22.7773V20.75ZM420.229 19.1094C420.229 18.5859 420.398 18.1621 420.738 17.8379C421.078 17.5098 421.523 17.3457 422.074 17.3457C422.633 17.3457 423.082 17.5078 423.422 17.832C423.762 18.1523 423.932 18.5879 423.932 19.1387V19.5605C423.932 20.0879 423.762 20.5117 423.422 20.832C423.082 21.1523 422.637 21.3125 422.086 21.3125C421.531 21.3125 421.082 21.1523 420.738 20.832C420.398 20.5078 420.229 20.0723 420.229 19.5254V19.1094ZM421.354 19.5605C421.354 19.7949 421.42 19.9844 421.553 20.1289C421.689 20.2695 421.867 20.3398 422.086 20.3398C422.305 20.3398 422.479 20.2676 422.607 20.123C422.736 19.9785 422.801 19.7852 422.801 19.543V19.1094C422.801 18.875 422.736 18.6855 422.607 18.541C422.479 18.3965 422.301 18.3242 422.074 18.3242C421.859 18.3242 421.686 18.3965 421.553 18.541C421.42 18.6816 421.354 18.8789 421.354 19.1328V19.5605ZM424.307 23.9082C424.307 23.3809 424.479 22.957 424.822 22.6367C425.166 22.3125 425.611 22.1504 426.158 22.1504C426.713 22.1504 427.16 22.3105 427.5 22.6309C427.844 22.9473 428.016 23.3848 428.016 23.9434V24.3652C428.016 24.8887 427.848 25.3125 427.512 25.6367C427.176 25.957 426.729 26.1172 426.17 26.1172C425.607 26.1172 425.156 25.9551 424.816 25.6309C424.477 25.3066 424.307 24.877 424.307 24.3418V23.9082ZM425.432 24.3652C425.432 24.5801 425.502 24.7637 425.643 24.916C425.783 25.0684 425.959 25.1445 426.17 25.1445C426.646 25.1445 426.885 24.8809 426.885 24.3535V23.9082C426.885 23.6738 426.818 23.4863 426.686 23.3457C426.553 23.2012 426.377 23.1289 426.158 23.1289C425.939 23.1289 425.764 23.2012 425.631 23.3457C425.498 23.4863 425.432 23.6797 425.432 23.9258V24.3652ZM422.42 25.3613L421.594 24.916L425.76 18.248L426.586 18.6934L422.42 25.3613ZM434.578 17.4688L436.77 23.6562L438.949 17.4688H441.258V26H439.494V23.668L439.67 19.6426L437.367 26H436.16L433.863 19.6484L434.039 23.668V26H432.281V17.4688H434.578ZM449.801 21.9277C449.801 22.7676 449.652 23.5039 449.355 24.1367C449.059 24.7695 448.633 25.2578 448.078 25.6016C447.527 25.9453 446.895 26.1172 446.18 26.1172C445.473 26.1172 444.842 25.9473 444.287 25.6074C443.732 25.2676 443.303 24.7832 442.998 24.1543C442.693 23.5215 442.539 22.7949 442.535 21.9746V21.5527C442.535 20.7129 442.686 19.9746 442.986 19.3379C443.291 18.6973 443.719 18.207 444.27 17.8672C444.824 17.5234 445.457 17.3516 446.168 17.3516C446.879 17.3516 447.51 17.5234 448.061 17.8672C448.615 18.207 449.043 18.6973 449.344 19.3379C449.648 19.9746 449.801 20.7109 449.801 21.5469V21.9277ZM448.02 21.541C448.02 20.6465 447.859 19.9668 447.539 19.502C447.219 19.0371 446.762 18.8047 446.168 18.8047C445.578 18.8047 445.123 19.0352 444.803 19.4961C444.482 19.9531 444.32 20.625 444.316 21.5117V21.9277C444.316 22.7988 444.477 23.4746 444.797 23.9551C445.117 24.4355 445.578 24.6758 446.18 24.6758C446.77 24.6758 447.223 24.4453 447.539 23.9844C447.855 23.5195 448.016 22.8438 448.02 21.957V21.541ZM458.016 26H456.258L452.836 20.3867V26H451.078V17.4688H452.836L456.264 23.0938V17.4688H458.016V26ZM464.684 22.3027H461.309V24.5879H465.27V26H459.551V17.4688H465.258V18.8926H461.309V20.9258H464.684V22.3027ZM469.242 21.3125L471.018 17.4688H472.939L470.139 22.9062V26H468.352V22.9062L465.551 17.4688H467.479L469.242 21.3125ZM476.707 26V17.4688H479.695C480.73 17.4688 481.516 17.668 482.051 18.0664C482.586 18.4609 482.854 19.041 482.854 19.8066C482.854 20.2246 482.746 20.5938 482.531 20.9141C482.316 21.2305 482.018 21.4629 481.635 21.6113C482.072 21.7207 482.416 21.9414 482.666 22.2734C482.92 22.6055 483.047 23.0117 483.047 23.4922C483.047 24.3125 482.785 24.9336 482.262 25.3555C481.738 25.7773 480.992 25.9922 480.023 26H476.707ZM478.465 22.2852V24.5879H479.971C480.385 24.5879 480.707 24.4902 480.938 24.2949C481.172 24.0957 481.289 23.8223 481.289 23.4746C481.289 22.6934 480.885 22.2969 480.076 22.2852H478.465ZM478.465 21.043H479.766C480.652 21.0273 481.096 20.6738 481.096 19.9824C481.096 19.5957 480.982 19.3184 480.756 19.1504C480.533 18.9785 480.18 18.8926 479.695 18.8926H478.465V21.043ZM489.188 24.2422H486.105L485.52 26H483.65L486.826 17.4688H488.455L491.648 26H489.779L489.188 24.2422ZM486.58 22.8184H488.713L487.641 19.625L486.58 22.8184ZM499.014 23.1582C498.947 24.0762 498.607 24.7988 497.994 25.3262C497.385 25.8535 496.58 26.1172 495.58 26.1172C494.486 26.1172 493.625 25.75 492.996 25.0156C492.371 24.2773 492.059 23.2656 492.059 21.9805V21.459C492.059 20.6387 492.203 19.916 492.492 19.291C492.781 18.666 493.193 18.1875 493.729 17.8555C494.268 17.5195 494.893 17.3516 495.604 17.3516C496.588 17.3516 497.381 17.6152 497.982 18.1426C498.584 18.6699 498.932 19.4102 499.025 20.3633H497.268C497.225 19.8125 497.07 19.4141 496.805 19.168C496.543 18.918 496.143 18.793 495.604 18.793C495.018 18.793 494.578 19.0039 494.285 19.4258C493.996 19.8438 493.848 20.4941 493.84 21.377V22.0215C493.84 22.9434 493.979 23.6172 494.256 24.043C494.537 24.4688 494.979 24.6816 495.58 24.6816C496.123 24.6816 496.527 24.5586 496.793 24.3125C497.062 24.0625 497.217 23.6777 497.256 23.1582H499.014ZM502.84 22.5781L501.926 23.5625V26H500.168V17.4688H501.926V21.3359L502.699 20.2754L504.873 17.4688H507.035L504.006 21.2598L507.123 26H505.031L502.84 22.5781Z" fill="black" fill-opacity="0.5"/>
<path d="M889.186 19.7617C889.186 19.4297 889.068 19.1758 888.834 19C888.6 18.8203 888.178 18.6328 887.568 18.4375C886.959 18.2383 886.477 18.043 886.121 17.8516C885.152 17.3281 884.668 16.623 884.668 15.7363C884.668 15.2754 884.797 14.8652 885.055 14.5059C885.316 14.1426 885.689 13.8594 886.174 13.6562C886.662 13.4531 887.209 13.3516 887.814 13.3516C888.424 13.3516 888.967 13.4629 889.443 13.6855C889.92 13.9043 890.289 14.2148 890.551 14.6172C890.816 15.0195 890.949 15.4766 890.949 15.9883H889.191C889.191 15.5977 889.068 15.2949 888.822 15.0801C888.576 14.8613 888.23 14.752 887.785 14.752C887.355 14.752 887.021 14.8438 886.783 15.0273C886.545 15.207 886.426 15.4453 886.426 15.7422C886.426 16.0195 886.564 16.252 886.842 16.4395C887.123 16.627 887.535 16.8027 888.078 16.9668C889.078 17.2676 889.807 17.6406 890.264 18.0859C890.721 18.5312 890.949 19.0859 890.949 19.75C890.949 20.4883 890.67 21.0684 890.111 21.4902C889.553 21.9082 888.801 22.1172 887.855 22.1172C887.199 22.1172 886.602 21.998 886.062 21.7598C885.523 21.5176 885.111 21.1875 884.826 20.7695C884.545 20.3516 884.404 19.8672 884.404 19.3164H886.168C886.168 20.2578 886.73 20.7285 887.855 20.7285C888.273 20.7285 888.6 20.6445 888.834 20.4766C889.068 20.3047 889.186 20.0664 889.186 19.7617ZM898.602 13.4688V19.0879C898.602 20.0215 898.309 20.7598 897.723 21.3027C897.141 21.8457 896.344 22.1172 895.332 22.1172C894.336 22.1172 893.545 21.8535 892.959 21.3262C892.373 20.7988 892.074 20.0742 892.062 19.1523V13.4688H893.82V19.0996C893.82 19.6582 893.953 20.0664 894.219 20.3242C894.488 20.5781 894.859 20.7051 895.332 20.7051C896.32 20.7051 896.822 20.1855 896.838 19.1465V13.4688H898.602ZM901.801 18.9941V22H900.043V13.4688H903.371C904.012 13.4688 904.574 13.5859 905.059 13.8203C905.547 14.0547 905.922 14.3887 906.184 14.8223C906.445 15.252 906.576 15.7422 906.576 16.293C906.576 17.1289 906.289 17.7891 905.715 18.2734C905.145 18.7539 904.354 18.9941 903.342 18.9941H901.801ZM901.801 17.5703H903.371C903.836 17.5703 904.189 17.4609 904.432 17.2422C904.678 17.0234 904.801 16.7109 904.801 16.3047C904.801 15.8867 904.678 15.5488 904.432 15.291C904.186 15.0332 903.846 14.9004 903.412 14.8926H901.801V17.5703ZM909.547 18.9941V22H907.789V13.4688H911.117C911.758 13.4688 912.32 13.5859 912.805 13.8203C913.293 14.0547 913.668 14.3887 913.93 14.8223C914.191 15.252 914.322 15.7422 914.322 16.293C914.322 17.1289 914.035 17.7891 913.461 18.2734C912.891 18.7539 912.1 18.9941 911.088 18.9941H909.547ZM909.547 17.5703H911.117C911.582 17.5703 911.936 17.4609 912.178 17.2422C912.424 17.0234 912.547 16.7109 912.547 16.3047C912.547 15.8867 912.424 15.5488 912.178 15.291C911.932 15.0332 911.592 14.9004 911.158 14.8926H909.547V17.5703ZM922.543 17.9277C922.543 18.7676 922.395 19.5039 922.098 20.1367C921.801 20.7695 921.375 21.2578 920.82 21.6016C920.27 21.9453 919.637 22.1172 918.922 22.1172C918.215 22.1172 917.584 21.9473 917.029 21.6074C916.475 21.2676 916.045 20.7832 915.74 20.1543C915.436 19.5215 915.281 18.7949 915.277 17.9746V17.5527C915.277 16.7129 915.428 15.9746 915.729 15.3379C916.033 14.6973 916.461 14.207 917.012 13.8672C917.566 13.5234 918.199 13.3516 918.91 13.3516C919.621 13.3516 920.252 13.5234 920.803 13.8672C921.357 14.207 921.785 14.6973 922.086 15.3379C922.391 15.9746 922.543 16.7109 922.543 17.5469V17.9277ZM920.762 17.541C920.762 16.6465 920.602 15.9668 920.281 15.502C919.961 15.0371 919.504 14.8047 918.91 14.8047C918.32 14.8047 917.865 15.0352 917.545 15.4961C917.225 15.9531 917.062 16.625 917.059 17.5117V17.9277C917.059 18.7988 917.219 19.4746 917.539 19.9551C917.859 20.4355 918.32 20.6758 918.922 20.6758C919.512 20.6758 919.965 20.4453 920.281 19.9844C920.598 19.5195 920.758 18.8438 920.762 17.957V17.541ZM926.979 18.877H925.578V22H923.82V13.4688H926.99C927.998 13.4688 928.775 13.6934 929.322 14.1426C929.869 14.5918 930.143 15.2266 930.143 16.0469C930.143 16.6289 930.016 17.1152 929.762 17.5059C929.512 17.8926 929.131 18.2012 928.619 18.4316L930.465 21.918V22H928.578L926.979 18.877ZM925.578 17.4531H926.996C927.438 17.4531 927.779 17.3418 928.021 17.1191C928.264 16.8926 928.385 16.582 928.385 16.1875C928.385 15.7852 928.27 15.4688 928.039 15.2383C927.812 15.0078 927.463 14.8926 926.99 14.8926H925.578V17.4531ZM937.613 14.8926H935V22H933.242V14.8926H930.664V13.4688H937.613V14.8926ZM946.924 22H941.076V20.8398L943.836 17.8984C944.215 17.4844 944.494 17.123 944.674 16.8145C944.857 16.5059 944.949 16.2129 944.949 15.9355C944.949 15.5566 944.854 15.2598 944.662 15.0449C944.471 14.8262 944.197 14.7168 943.842 14.7168C943.459 14.7168 943.156 14.8496 942.934 15.1152C942.715 15.377 942.605 15.7227 942.605 16.1523H940.906C940.906 15.6328 941.029 15.1582 941.275 14.7285C941.525 14.2988 941.877 13.9629 942.33 13.7207C942.783 13.4746 943.297 13.3516 943.871 13.3516C944.75 13.3516 945.432 13.5625 945.916 13.9844C946.404 14.4062 946.648 15.002 946.648 15.7715C946.648 16.1934 946.539 16.623 946.32 17.0605C946.102 17.498 945.727 18.0078 945.195 18.5898L943.256 20.6348H946.924V22ZM952.977 18.7891H953.943V20.1543H952.977V22H951.283V20.1543H947.785L947.709 19.0879L951.266 13.4688H952.977V18.7891ZM949.396 18.7891H951.283V15.7773L951.172 15.9707L949.396 18.7891ZM955.461 22.7324H954.201L957.342 13.4688H958.602L955.461 22.7324ZM965.146 14.418L961.848 22H960.061L963.365 14.8398H959.123V13.4688H965.146V14.418Z" fill="black" fill-opacity="0.5"/>
<path d="M864 4C857.935 4 853 8.7103 853 14.5V18.8501C853 19.9253 853.987 20.8 855.2 20.8H856.3C856.592 20.8 856.872 20.6894 857.078 20.4925C857.284 20.2955 857.4 20.0285 857.4 19.75V14.3498C857.4 14.0714 857.284 13.8043 857.078 13.6074C856.872 13.4105 856.592 13.2998 856.3 13.2998H855.301C855.913 9.23635 859.576 6.1 864 6.1C868.424 6.1 872.087 9.23635 872.699 13.2998H871.7C871.408 13.2998 871.128 13.4105 870.922 13.6074C870.716 13.8043 870.6 14.0714 870.6 14.3498V20.8C870.6 21.9581 869.613 22.9 868.4 22.9H866.2V21.85H861.8V25H868.4C870.827 25 872.8 23.1163 872.8 20.8C874.013 20.8 875 19.9253 875 18.8501V14.5C875 8.7103 870.065 4 864 4Z" fill="#F2C94C"/>
<path d="M5.89453 20.5137H2.51953V24H0.761719V15.4688H6.31641V16.8926H2.51953V19.0957H5.89453V20.5137ZM10.4941 20.877H9.09375V24H7.33594V15.4688H10.5059C11.5137 15.4688 12.291 15.6934 12.8379 16.1426C13.3848 16.5918 13.6582 17.2266 13.6582 18.0469C13.6582 18.6289 13.5312 19.1152 13.2773 19.5059C13.0273 19.8926 12.6465 20.2012 12.1348 20.4316L13.9805 23.918V24H12.0938L10.4941 20.877ZM9.09375 19.4531H10.5117C10.9531 19.4531 11.2949 19.3418 11.5371 19.1191C11.7793 18.8926 11.9004 18.582 11.9004 18.1875C11.9004 17.7852 11.7852 17.4688 11.5547 17.2383C11.3281 17.0078 10.9785 16.8926 10.5059 16.8926H9.09375V19.4531ZM20.1328 20.3027H16.7578V22.5879H20.7188V24H15V15.4688H20.707V16.8926H16.7578V18.9258H20.1328V20.3027ZM26.8828 20.3027H23.5078V22.5879H27.4688V24H21.75V15.4688H27.457V16.8926H23.5078V18.9258H26.8828V20.3027ZM35.9121 21.7617C35.9121 21.4297 35.7949 21.1758 35.5605 21C35.3262 20.8203 34.9043 20.6328 34.2949 20.4375C33.6855 20.2383 33.2031 20.043 32.8477 19.8516C31.8789 19.3281 31.3945 18.623 31.3945 17.7363C31.3945 17.2754 31.5234 16.8652 31.7812 16.5059C32.043 16.1426 32.416 15.8594 32.9004 15.6562C33.3887 15.4531 33.9355 15.3516 34.541 15.3516C35.1504 15.3516 35.6934 15.4629 36.1699 15.6855C36.6465 15.9043 37.0156 16.2148 37.2773 16.6172C37.543 17.0195 37.6758 17.4766 37.6758 17.9883H35.918C35.918 17.5977 35.7949 17.2949 35.5488 17.0801C35.3027 16.8613 34.957 16.752 34.5117 16.752C34.082 16.752 33.748 16.8438 33.5098 17.0273C33.2715 17.207 33.1523 17.4453 33.1523 17.7422C33.1523 18.0195 33.291 18.252 33.5684 18.4395C33.8496 18.627 34.2617 18.8027 34.8047 18.9668C35.8047 19.2676 36.5332 19.6406 36.9902 20.0859C37.4473 20.5312 37.6758 21.0859 37.6758 21.75C37.6758 22.4883 37.3965 23.0684 36.8379 23.4902C36.2793 23.9082 35.5273 24.1172 34.582 24.1172C33.9258 24.1172 33.3281 23.998 32.7891 23.7598C32.25 23.5176 31.8379 23.1875 31.5527 22.7695C31.2715 22.3516 31.1309 21.8672 31.1309 21.3164H32.8945C32.8945 22.2578 33.457 22.7285 34.582 22.7285C35 22.7285 35.3262 22.6445 35.5605 22.4766C35.7949 22.3047 35.9121 22.0664 35.9121 21.7617ZM45.8145 24H44.0566V20.3438H40.6289V24H38.8711V15.4688H40.6289V18.9258H44.0566V15.4688H45.8145V24ZM49.2246 24H47.4668V15.4688H49.2246V24ZM52.6172 20.9941V24H50.8594V15.4688H54.1875C54.8281 15.4688 55.3906 15.5859 55.875 15.8203C56.3633 16.0547 56.7383 16.3887 57 16.8223C57.2617 17.252 57.3926 17.7422 57.3926 18.293C57.3926 19.1289 57.1055 19.7891 56.5312 20.2734C55.9609 20.7539 55.1699 20.9941 54.1582 20.9941H52.6172ZM52.6172 19.5703H54.1875C54.6523 19.5703 55.0059 19.4609 55.248 19.2422C55.4941 19.0234 55.6172 18.7109 55.6172 18.3047C55.6172 17.8867 55.4941 17.5488 55.248 17.291C55.002 17.0332 54.6621 16.9004 54.2285 16.8926H52.6172V19.5703ZM60.3633 20.9941V24H58.6055V15.4688H61.9336C62.5742 15.4688 63.1367 15.5859 63.6211 15.8203C64.1094 16.0547 64.4844 16.3887 64.7461 16.8223C65.0078 17.252 65.1387 17.7422 65.1387 18.293C65.1387 19.1289 64.8516 19.7891 64.2773 20.2734C63.707 20.7539 62.916 20.9941 61.9043 20.9941H60.3633ZM60.3633 19.5703H61.9336C62.3984 19.5703 62.752 19.4609 62.9941 19.2422C63.2402 19.0234 63.3633 18.7109 63.3633 18.3047C63.3633 17.8867 63.2402 17.5488 62.9941 17.291C62.748 17.0332 62.4082 16.9004 61.9746 16.8926H60.3633V19.5703ZM68.2207 24H66.4629V15.4688H68.2207V24ZM76.793 24H75.0352L71.6133 18.3867V24H69.8555V15.4688H71.6133L75.041 21.0938V15.4688H76.793V24ZM85.0781 22.9219C84.7617 23.3008 84.3145 23.5957 83.7363 23.8066C83.1582 24.0137 82.5176 24.1172 81.8145 24.1172C81.0762 24.1172 80.4277 23.957 79.8691 23.6367C79.3145 23.3125 78.8848 22.8438 78.5801 22.2305C78.2793 21.6172 78.125 20.8965 78.1172 20.0684V19.4883C78.1172 18.6367 78.2598 17.9004 78.5449 17.2793C78.834 16.6543 79.248 16.1777 79.7871 15.8496C80.3301 15.5176 80.9648 15.3516 81.6914 15.3516C82.7031 15.3516 83.4941 15.5938 84.0645 16.0781C84.6348 16.5586 84.9727 17.2598 85.0781 18.1816H83.3672C83.2891 17.6934 83.1152 17.3359 82.8457 17.1094C82.5801 16.8828 82.2129 16.7695 81.7441 16.7695C81.1465 16.7695 80.6914 16.9941 80.3789 17.4434C80.0664 17.8926 79.9082 18.5605 79.9043 19.4473V19.9922C79.9043 20.8867 80.0742 21.5625 80.4141 22.0195C80.7539 22.4766 81.252 22.7051 81.9082 22.7051C82.5684 22.7051 83.0391 22.5645 83.3203 22.2832V20.8125H81.7207V19.5176H85.0781V22.9219Z" fill="black" fill-opacity="0.5"/>
</svg>
